<svg version="1.1" viewBox="0.0 0.0 960.0 720.0" fill="none" stroke="none" stroke-linecap="square" stroke-miterlimit="10" xmlns:xlink="http://www.w3.org/1999/xlink" xmlns="http://www.w3.org/2000/svg"><clipPath id="p.0"><path d="m0 0l960.0 0l0 720.0l-960.0 0l0 -720.0z" clip-rule="nonzero"/></clipPath><g clip-path="url(#p.0)"><path fill="#000000" fill-opacity="0.0" d="m0 0l960.0 0l0 720.0l-960.0 0z" fill-rule="evenodd"/><path fill="#ea332d" d="m240.0 360.0l0 0c0 -132.64401 107.45166 -240.17322 240.0 -240.17322l0 0c63.651978 0 124.6969 25.303886 169.70563 70.3451c45.008728 45.04123 70.29437 106.13022 70.29437 169.82812l0 0c0 132.64401 -107.45166 240.17322 -240.0 240.17322l0 0c-132.54834 0 -240.0 -107.529205 -240.0 -240.17322z" fill-rule="evenodd"/><path stroke="#808080" stroke-width="24.0" stroke-linejoin="round" stroke-linecap="butt" d="m240.0 360.0l0 0c0 -132.64401 107.45166 -240.17322 240.0 -240.17322l0 0c63.651978 0 124.6969 25.303886 169.70563 70.3451c45.008728 45.04123 70.29437 106.13022 70.29437 169.82812l0 0c0 132.64401 -107.45166 240.17322 -240.0 240.17322l0 0c-132.54834 0 -240.0 -107.529205 -240.0 -240.17322z" fill-rule="evenodd"/></g></svg>