<?xml version="1.0" encoding="utf-8"?>
<svg xmlns="http://www.w3.org/2000/svg" version="1.1" width="45" height="45" xmlns:bx="https://boxy-svg.com">
  <path d="m 22.5,9 c -2.21,0 -4,1.79 -4,4 0,0.89 0.29,1.71 0.78,2.38 C 17.33,16.5 16,18.59 16,21 c 0,2.03 0.94,3.84 2.41,5.03 C 15.41,27.09 11,31.58 11,39.5 H 34 C 34,31.58 29.59,27.09 26.59,26.03 28.06,24.84 29,23.03 29,21 29,18.59 27.67,16.5 25.72,15.38 26.21,14.71 26.5,13.89 26.5,13 c 0,-2.21 -1.79,-4 -4,-4 z" style="opacity:1; fill:#ffffff; fill-opacity:1; fill-rule:nonzero; stroke:#000000; stroke-width:1.5; stroke-linecap:round; stroke-linejoin:miter; stroke-miterlimit:4; stroke-dasharray:none; stroke-opacity:1;"/>
  <path d="M 7.346 25.441 L 8.002 27.872 L 6.689 27.872 L 7.346 25.441 Z" bx:shape="triangle 6.689 25.441 1.313 2.431 0.5 0 1@4fe29303" style="stroke: rgba(0, 0, 0, 0); transform-origin: 7.346px 26.657px;" transform="matrix(-0.999949, 0.010088, -0.010088, -0.999949, 14.181651, -11.241805)"/>
  <path d="M 7.346 25.441 L 8.002 27.872 L 6.689 27.872 L 7.346 25.441 Z" bx:shape="triangle 6.689 25.441 1.313 2.431 0.5 0 1@4fe29303" style="stroke: rgba(0, 0, 0, 0); transform-origin: 7.346px 26.657px;" transform="matrix(-0.999949, 0.010088, -0.010088, -0.999949, 15.924361, -11.241614)"/>
</svg>